<svg width="128" height="128" xmlns="http://www.w3.org/2000/svg">
 <!-- Created with Method Draw - http://github.com/duopixel/Method-Draw/ -->
 <g>
  <title>background</title>
  <rect fill="#fff" id="canvas_background" height="130" width="130" y="-1" x="-1"/>
  <g display="none" overflow="visible" y="0" x="0" height="100%" width="100%" id="canvasGrid">
   <rect fill="url(#gridpattern)" stroke-width="0" y="0" x="0" height="100%" width="100%"/>
  </g>
 </g>
 <g>
  <title>Layer 1</title>
  <path id="svg_1" d="m82.435051,63.495537l0.042107,-0.028694l-2.723572,-4.282784c7.766869,-10.451962 8.809364,-24.975491 1.408829,-36.625715c-9.593002,-15.087753 -29.596802,-19.538912 -44.683601,-9.944987c-15.083235,9.588586 -19.548855,29.59139 -9.95487,44.688035c7.174841,11.279572 20.190908,16.608467 32.606108,14.566429l1.990978,3.140099l0.967247,0.211411l3.657719,-2.097588l-1.432129,6.464554l11.659256,2.592018l-1.389984,6.222748l8.936523,1.990021l-3.192902,14.369431l6.601646,1.46891l-1.990929,8.950851l19.416245,4.309669l3.559189,-15.927719l-25.477859,-40.066689zm-34.700985,-33.175686c-3.217045,2.047363 -7.480194,1.09437 -9.527618,-2.122656c-2.042919,-3.215296 -1.098938,-7.48386 2.117268,-9.527674s7.485626,-1.09269 9.523186,2.122625c2.051842,3.217125 1.0989,7.485678 -2.112835,9.527704z" stroke-width="6" stroke="#000" fill="#fff"/>
 </g>
</svg>